<svg width="37" height="49" viewBox="0 0 37 49" fill="none" xmlns="http://www.w3.org/2000/svg">
<path d="M16.4866 48.0114C2.58111 27.8526 0 25.7837 0 18.375C0 8.22674 8.22674 0 18.375 0C28.5233 0 36.75 8.22674 36.75 18.375C36.75 25.7837 34.1689 27.8526 20.2634 48.0114C19.3509 49.3296 17.399 49.3295 16.4866 48.0114ZM18.375 26.0312C22.6035 26.0312 26.0312 22.6035 26.0312 18.375C26.0312 14.1465 22.6035 10.7188 18.375 10.7188C14.1465 10.7188 10.7188 14.1465 10.7188 18.375C10.7188 22.6035 14.1465 26.0312 18.375 26.0312Z" fill="black"/>
</svg>
