<svg width="37" height="37" viewBox="0 0 37 37" fill="none" xmlns="http://www.w3.org/2000/svg">
<path d="M18.29 3.54C19.2675 3.54 20.06 2.74754 20.06 1.77C20.06 0.792464 19.2675 0 18.29 0V3.54ZM36.58 18.29C36.58 17.3125 35.7875 16.52 34.81 16.52C33.8325 16.52 33.04 17.3125 33.04 18.29H36.58ZM34.81 3.54C35.7875 3.54 36.58 2.74754 36.58 1.77C36.58 0.792464 35.7875 0 34.81 0V3.54ZM25.1623 0C24.1848 0 23.3923 0.792464 23.3923 1.77C23.3923 2.74754 24.1848 3.54 25.1623 3.54V0ZM36.58 1.77C36.58 0.792464 35.7875 0 34.81 0C33.8325 0 33.04 0.792464 33.04 1.77H36.58ZM33.04 11.5428C33.04 12.5203 33.8325 13.3128 34.81 13.3128C35.7875 13.3128 36.58 12.5203 36.58 11.5428H33.04ZM36.0615 3.02158C36.7528 2.33036 36.7528 1.20964 36.0615 0.518421C35.3703 -0.1728 34.2497 -0.1728 33.5585 0.518421L36.0615 3.02158ZM17.0385 17.0385C16.3472 17.7297 16.3472 18.8503 17.0385 19.5415C17.7297 20.2328 18.8503 20.2328 19.5415 19.5415L17.0385 17.0385ZM18.29 0H11.21V3.54H18.29V0ZM11.21 0C5.01889 0 0 5.01889 0 11.21H3.54C3.54 6.97397 6.97397 3.54 11.21 3.54V0ZM0 11.21V25.37H3.54V11.21H0ZM0 25.37C0 31.5612 5.01889 36.58 11.21 36.58V33.04C6.97397 33.04 3.54 29.606 3.54 25.37H0ZM11.21 36.58H25.37V33.04H11.21V36.58ZM25.37 36.58C31.5612 36.58 36.58 31.5612 36.58 25.37H33.04C33.04 29.606 29.606 33.04 25.37 33.04V36.58ZM36.58 25.37V18.29H33.04V25.37H36.58ZM34.81 0H25.1623V3.54H34.81V0ZM33.04 1.77V11.5428H36.58V1.77H33.04ZM33.5585 0.518421L17.0385 17.0385L19.5415 19.5415L36.0615 3.02158L33.5585 0.518421Z" fill="black"/>
</svg>
