<?xml version="1.0" encoding="UTF-8" standalone="no"?>
<!DOCTYPE svg PUBLIC "-//W3C//DTD SVG 1.1//EN" "http://www.w3.org/Graphics/SVG/1.1/DTD/svg11.dtd">
<svg width="100%" height="100%" viewBox="0 0 830 830" version="1.1" xmlns="http://www.w3.org/2000/svg" xmlns:xlink="http://www.w3.org/1999/xlink" xml:space="preserve" xmlns:serif="http://www.serif.com/" style="fill-rule:evenodd;clip-rule:evenodd;stroke-linejoin:round;stroke-miterlimit:2;">
    <g id="Artboard1" transform="matrix(1,0,0,1,-585,-585)">
        <rect x="585" y="585" width="830" height="830" style="fill:none;"/>
        <g>
            <g>
                <path d="M1173.57,1118.91C994.26,1164.31 820.965,1266.57 754.191,1308.82L1062.2,939.949C1084.77,952.635 1113.88,947.865 1131.08,927.268C1150.48,904.027 1147.37,869.455 1124.13,850.049C1100.89,830.642 1066.32,833.751 1046.91,856.992C1029.72,877.589 1030.209,907.078 1046.72,927.031L738.72,1295.9C768.378,1222.66 838.084,1033.9 850.766,849.373C850.766,849.373 1013.07,770.639 1053.6,712.047L1272.5,894.835C1222.08,945.16 1173.57,1118.91 1173.57,1118.91ZM1405.87,939.305C1399.57,897.164 1387.07,857.485 1369.44,821.052L1308.14,894.461L1122.57,739.509L1202.92,643.273C1196.97,639.88 1190.92,636.635 1184.79,633.539L1107.1,726.59L1084.12,707.403L1156.6,620.604C1150.04,617.893 1143.41,615.346 1136.71,612.972L1068.65,694.485L1047.61,676.916L1108.42,604.091C1054.96,589.422 997.652,585.4 939.306,594.125C715.147,627.645 560.605,836.535 594.126,1060.69C627.646,1284.85 836.536,1439.39 1060.69,1405.87C1284.85,1372.35 1439.39,1163.46 1405.87,939.305Z" style="fill:rgb(35,31,32);fill-rule:nonzero;"/>
            </g>
        </g>
    </g>
</svg>
