<?xml version="1.0" encoding="UTF-8" standalone="no"?>
<!DOCTYPE svg PUBLIC "-//W3C//DTD SVG 1.1//EN" "http://www.w3.org/Graphics/SVG/1.1/DTD/svg11.dtd">
<svg width="100%" height="100%" viewBox="0 0 821 821" version="1.1" xmlns="http://www.w3.org/2000/svg" xmlns:xlink="http://www.w3.org/1999/xlink" xml:space="preserve" xmlns:serif="http://www.serif.com/" style="fill-rule:evenodd;clip-rule:evenodd;stroke-linejoin:round;stroke-miterlimit:2;">
    <g>
        <path d="M584.013,529.352C404.703,574.752 231.408,677.012 164.634,719.262L472.643,350.391C495.213,363.077 524.323,358.307 541.523,337.71C560.923,314.469 557.813,279.897 534.573,260.491C511.333,241.084 476.763,244.193 457.353,267.434C440.163,288.031 440.652,317.52 457.163,337.473L149.163,706.342C178.821,633.102 248.527,444.342 261.209,259.815C261.209,259.815 423.513,181.081 464.043,122.489L682.943,305.277C632.523,355.602 584.013,529.352 584.013,529.352ZM816.313,349.747C810.013,307.606 797.513,267.927 779.883,231.494L718.583,304.903L533.013,149.951L613.363,53.715C607.413,50.322 601.363,47.077 595.233,43.981L517.543,137.032L494.563,117.845L567.043,31.046C560.483,28.335 553.853,25.788 547.153,23.414L479.093,104.927L458.053,87.358L518.863,14.533C465.403,-0.136 408.095,-4.158 349.749,4.567C125.59,38.087 -28.952,246.977 4.569,471.132C38.089,695.292 246.979,849.832 471.133,816.312C695.293,782.792 849.833,573.902 816.313,349.747Z" style="fill:rgb(211,169,119);fill-rule:nonzero;"/>
    </g>
</svg>
